<svg xmlns="http://www.w3.org/2000/svg" viewBox="0 0 700 410"><rect width="700" height="410" rx="28" fill="#f6edff"/><g stroke="#8b69bd" stroke-width="13" fill="none"><path d="M83 82h534M83 191h534M83 300h534"/><path d="M125 53v286M300 53v286M475 53v286M590 53v286"/></g><g fill="#f1a53b"><rect x="145" y="103" width="112" height="66" rx="8"/><rect x="330" y="103" width="108" height="66" rx="8"/><rect x="500" y="216" width="74" height="66" rx="8"/></g><circle cx="365" cy="252" r="55" fill="#f0c3a0"/><path d="M312 246c8-51 30-76 70-73 35 2 57 27 63 73-44-15-88-15-133 0z" fill="#1c67a5"/><path d="M255 358c12-92 49-138 112-138 65 0 103 46 115 138" fill="#dbefff" stroke="#2c7eb9" stroke-width="9"/><path d="M420 273l76-35" stroke="#f0c3a0" stroke-width="30" stroke-linecap="round"/></svg>
